<?xml version="1.0" encoding="UTF-8"?>
<svg xmlnsSodipodi="http://sodipodi.sourceforge.net/DTD/sodipodi-0.dtd" xmlns="http://www.w3.org/2000/svg" xmlnsSvg="http://www.w3.org/2000/svg" width="98.521217mm" height="98.521217mm" viewBox="0 0 98.521217 98.521217" version="1.1" id="svg1" xmlSpace="preserve" sodipodiDocname="close-icon.svg">
  
  <defs id="defs1"></defs>
  <g id="layer1" transform="translate(-55.710209,-99.046783)">
    <path style="fill:#f97316;fill-opacity:1;stroke-width:1.37568;stroke-linecap:round;paint-order:markers stroke fill" d="M 32.120479,370.11292 C 17.840953,366.27228 5.5750587,353.89453 1.8405779,339.55689 0.07381004,332.77381 0.37729139,323.42518 2.5769754,316.87243 c 1.0169565,-3.02946 2.7056739,-7.01822 3.7527053,-8.86391 1.2039398,-2.12229 23.5363733,-25.03377 60.7558473,-62.33116 32.368682,-32.43644 58.852152,-59.29368 58.852152,-59.68275 0,-0.38907 -26.657234,-27.41007 -59.238306,-60.04668 C 12.505422,71.661612 7.2651112,66.202921 5.159871,61.843888 1.924295,55.144421 0.74658981,50.106105 0.73660361,42.920799 0.72049567,31.330841 4.8786825,21.273992 13.076337,13.076337 21.273992,4.8786825 31.330841,0.7204957 42.920799,0.73660361 50.106105,0.74658981 55.144421,1.924295 61.843888,5.159871 c 4.359033,2.1052398 9.817724,7.345551 64.104042,61.539503 32.63661,32.581072 59.65761,59.238306 60.04668,59.238306 0.38907,0 27.24631,-26.48347 59.68275,-58.852152 37.29739,-37.219474 60.20887,-59.5519075 62.33116,-60.7558473 6.37456,-3.6161854 13.75578,-5.60171722 20.82439,-5.60171722 18.11904,0 33.02517,10.20292752 39.88237,27.29863052 1.61304,4.021479 2.11536,6.632135 2.38271,12.383567 0.41292,8.882991 -0.54877,13.929777 -3.98828,20.92992 -2.44929,4.984826 -5.77893,8.464435 -61.82338,64.607849 -32.57907,32.63661 -59.23467,59.65761 -59.23467,60.04668 0,0.38907 26.48821,27.24631 58.86268,59.68275 44.71752,44.80312 59.39533,59.9375 61.07919,62.97916 5.75644,10.39818 6.96355,23.12426 3.21082,33.8503 -2.35934,6.74344 -4.8138,10.85847 -9.40316,15.76486 -12.95827,13.85345 -34.25947,17.06951 -51.14467,7.72185 -3.04166,-1.68386 -18.17604,-16.36167 -62.97916,-61.07919 -32.43644,-32.37447 -59.29368,-58.86268 -59.68275,-58.86268 -0.38907,0 -27.41007,26.64032 -60.04668,59.20072 -63.869038,63.71992 -62.189267,62.2158 -72.472864,64.89434 -5.33169,1.38873 -16.129154,1.37164 -21.354587,-0.0338 z" id="path1" transform="matrix(0.26458333,0,0,0.26458333,55.710209,99.046783)"></path>
  </g>
</svg>
