<svg xmlns="http://www.w3.org/2000/svg" xmlnsSvg="http://www.w3.org/2000/svg" width="129.45638mm" height="129.42036mm" viewBox="0 0 129.45637 129.42036" version="1.1" id="svg1" xmlSpace="preserve" sodipodiDocname="close-icon.svg">
  <defs id="defs1"></defs>
  <g id="layer1" transform="translate(-40.216764,-83.530547)">
    <path style="fill:#f97316;fill-opacity:1;stroke-width:0.363982;stroke-linecap:round;paint-order:markers stroke fill" d="m 110.57721,211.50035 c -3.39008,1.953 -8.00063,1.93207 -11.381717,-0.0517 -1.59958,-0.9385 -3.291825,-2.7443 -4.106234,-4.38178 -0.376517,-0.75704 -0.806829,-1.81923 -0.956249,-2.36042 -0.171813,-0.6223 -0.280146,-9.08693 -0.294723,-23.02819 -0.01268,-12.1243 -0.08261,-22.10374 -0.155395,-22.17653 -0.07279,-0.0728 -10.11538,-0.14085 -22.316869,-0.15124 -20.295429,-0.0173 -22.297091,-0.0581 -23.506484,-0.4798 -1.858734,-0.64805 -3.021681,-1.37033 -4.367838,-2.71275 -2.171364,-2.16534 -3.274937,-4.82481 -3.274937,-7.89218 0,-3.06738 1.103573,-5.72685 3.274937,-7.89219 1.346157,-1.34242 2.509104,-2.0647 4.367838,-2.71275 1.209393,-0.42166 3.211055,-0.46252 23.506484,-0.4798 12.201489,-0.0104 22.244078,-0.0785 22.316869,-0.15124 0.07279,-0.0728 0.142718,-10.05223 0.155395,-22.17653 0.01458,-13.94126 0.12291,-22.405887 0.294723,-23.028187 0.516061,-1.869155 1.525533,-3.621568 2.84799,-4.944025 3.38987,-3.389867 8.08749,-4.269783 12.5688,-2.354275 1.05416,0.450592 1.63656,0.845038 2.76261,1.871047 1.73916,1.584654 2.50343,2.708772 3.16959,4.661913 0.47437,1.390839 0.50242,2.664772 0.52094,23.653847 0.0108,12.20112 0.0791,22.2434 0.15192,22.31619 0.0728,0.0728 10.05312,0.14183 22.1785,0.15343 16.7483,0.016 22.32582,0.10143 23.20991,0.35546 3.02235,0.86842 5.62909,3.02349 6.93372,5.7323 0.82021,1.70303 1.13089,2.9321 1.1902,4.70865 0.16748,5.01617 -3.21605,9.60307 -8.12392,11.01326 -0.88409,0.25403 -6.46161,0.33945 -23.20991,0.35546 -12.12538,0.0116 -22.10571,0.0806 -22.1785,0.15343 -0.0728,0.0728 -0.14402,10.11221 -0.15827,22.30984 -0.0279,23.87044 0.005,23.27477 -1.41786,25.69984 -0.73768,1.25732 -2.76096,3.2742 -4.00152,3.98888 z" id="path1"></path>
  </g>
</svg>
