<?xml version="1.0" encoding="UTF-8" standalone="no"?>
<svg xmlns="http://www.w3.org/2000/svg" xmlnsSvg="http://www.w3.org/2000/svg"  width="88.304909mm" height="91.273224mm" viewBox="0 0 88.304909 91.273224" version="1.1" id="svg1" xmlSpace="preserve">
  <defs id="defs1"></defs>
  <g transform="translate(-51.167284,-96.296819)" >
    <path style="fill:#fff;stroke-width:0.660305;stroke-linecap:round;paint-order:markers stroke fill" d="m 132.51884,186.95389 c -0.48818,-0.33505 -4.27802,-4.14697 -8.42187,-8.47093 -4.14385,-4.32398 -9.12808,-9.51196 -11.07606,-11.52886 l -3.54179,-3.66708 -2.01281,1.15748 c -3.56996,2.05296 -6.85993,3.48897 -9.710301,4.23836 -16.959807,4.45893 -34.441394,-3.25974 -42.337642,-18.69342 -3.287348,-6.4253 -4.546881,-12.0792 -4.193569,-18.82442 0.708533,-13.527 9.068406,-25.70615 21.739613,-31.671551 9.070007,-4.270012 21.116848,-4.261479 30.135519,0.02135 10.95342,5.201611 18.12995,13.965201 20.95373,25.587591 0.85903,3.53568 0.86319,12.36209 0.007,15.88114 -1.33585,5.4936 -3.21746,9.57897 -6.48892,14.08882 l -1.39405,1.92176 2.31528,2.44589 c 1.2734,1.34523 6.21287,6.49379 10.97659,11.44124 4.76373,4.94745 8.97343,9.50728 9.35491,10.13295 1.20271,1.97258 0.70212,4.27589 -1.2657,5.82378 -1.1756,0.92472 -3.7748,0.98449 -5.04041,0.1159 z M 91.477039,160.49811 c 6.01367,-0.86305 10.819691,-3.00807 14.792461,-6.60214 5.96971,-5.40067 8.99337,-11.60683 9.38888,-19.27103 0.44083,-8.54252 -2.6415,-16.03147 -9.04793,-21.98317 -3.1167,-2.89547 -7.390741,-5.26761 -11.464591,-6.36297 -3.52927,-0.94893 -10.89339,-0.87898 -14.405611,0.13684 -7.922966,2.29151 -13.926923,7.25402 -17.650798,14.58908 -2.039305,4.01689 -3.007524,9.94443 -2.4813,15.19074 0.648587,6.46619 3.247739,11.74444 8.177109,16.60573 4.726287,4.66102 9.502032,6.9356 16.40237,7.8121 1.34523,0.17087 2.5245,0.32769 2.62059,0.34848 0.0961,0.0208 1.74706,-0.18786 3.66882,-0.46366 z" id="path1"></path>
  </g>
</svg>
